PathFileType	4	(X/Y/Z)	D:\Documents\paper\Opensim\Pipline\Result\suihongtao\30DJ0001\original_data\suihongtao_30DJ0001_static.trc	
DataRate	CameraRate	NumFrames	NumMarkers	Units	OrigDataRate	OrigDataStartFrame	OrigNumFrames	
200	200	12	27	mm	200	969	1108	
Frame#	Time	Top.Head			L.Acromium			R.Acromium			Sternum			L.ASIS			R.ASIS			L.PSIS			R.PSIS			V.Sacral			L.Thigh.Front			L.Knee.Lat			L.Knee.Med			L.Shank.Front			L.Ankle.Lat			L.Ankle.Med			L.Heel			L.Toe.Lat			L.Toe.Tip			R.Thigh.Front			R.Knee.Lat			R.Knee.Med			R.Shank.Front			R.Ankle.Lat			R.Ankle.Med			R.Heel			R.Toe.Lat			R.Toe.Tip
		X1	Y1	Z1	X2	Y2	Z2	X3	Y3	Z3	X4	Y4	Z4	X5	Y5	Z5	X6	Y6	Z6	X7	Y7	Z7	X8	Y8	Z8	X9	Y9	Z9	X10	Y10	Z10	X11	Y11	Z11	X12	Y12	Z12	X13	Y13	Z13	X14	Y14	Z14	X15	Y15	Z15	X16	Y16	Z16	X17	Y17	Z17	X18	Y18	Z18	X19	Y19	Z19	X20	Y20	Z20	X21	Y21	Z21	X22	Y22	Z22	X23	Y23	Z23	X24	Y24	Z24	X25	Y25	Z25	X26	Y26	Z26	X27	Y27	Z27
970	4.845000	354.133831	1628.618611	-765.877397	212.603249	1313.685706	-634.063489	496.581265	1309.684957	-847.492987	304.027039	1301.975168	-817.642928	187.669377	893.962054	-749.488343	364.031028	895.752706	-904.044698	367.968728	910.061828	-651.499824	444.389218	905.266784	-710.479145	406.178943	907.664441	-680.989288	213.700921	538.145170	-751.417522	216.169762	447.485381	-632.449536	326.291509	423.854731	-696.176169	239.489306	379.487977	-691.707290	224.759154	86.232120	-616.488797	276.630250	102.571387	-683.528175	292.171542	47.573686	-598.768757	143.054721	32.760318	-694.498562	165.523736	55.771933	-757.832649	361.578382	530.536890	-851.985621	488.963077	441.952790	-829.831379	398.640267	423.136096	-745.270107	436.622163	375.864317	-824.130160	505.001474	89.745381	-811.865527	431.133629	100.029902	-775.485345	501.270125	44.508336	-728.360720	473.661107	34.838784	-903.049330	388.793535	49.904194	-902.426679	
971	4.850000	354.163131	1628.622180	-765.852594	212.644873	1313.696913	-634.019293	496.621828	1309.689941	-847.451481	304.076855	1301.982936	-817.593715	187.693107	893.967821	-749.467572	364.055149	895.752978	-904.019138	367.990572	910.055206	-651.478517	444.415140	905.267991	-710.457264	406.202953	907.661731	-680.967612	213.716488	538.151599	-751.412023	216.180240	447.482517	-632.442645	326.299857	423.848894	-696.171350	239.498876	379.487021	-691.700217	224.759887	86.231559	-616.490433	276.630652	102.575924	-683.525337	292.171654	47.576196	-598.769344	143.051882	32.764314	-694.496639	165.526246	55.774549	-757.831282	361.590366	530.540222	-851.969672	488.979011	441.953156	-829.820180	398.654886	423.142796	-745.264965	436.629643	375.865766	-824.118718	505.040949	89.732793	-811.803954	431.135826	100.029200	-775.483350	501.269096	44.513324	-728.354582	473.663327	34.837427	-903.049366	388.791837	49.906680	-902.425204	
972	4.855000	354.192255	1628.625731	-765.827319	212.684867	1313.707089	-633.976789	496.662851	1309.694464	-847.410786	304.128520	1301.990715	-817.545098	187.715864	893.973546	-749.448334	364.079929	895.754141	-903.993676	368.012874	910.049810	-651.458694	444.441158	905.268421	-710.435436	406.227193	907.659196	-680.946775	213.732983	538.154577	-751.402692	216.191789	447.479058	-632.437284	326.307422	423.845434	-696.167394	239.508238	379.486584	-691.693758	224.756957	86.230699	-616.492166	276.634023	102.580821	-683.523897	292.170162	47.580187	-598.771234	143.049572	32.766138	-694.494849	165.527206	55.777650	-757.828988	361.603118	530.541086	-851.954783	488.995582	441.954020	-829.809266	398.670958	423.151981	-745.254929	436.639952	375.866573	-824.111432	505.050531	89.728327	-811.790642	431.138499	100.028796	-775.485857	501.266963	44.514251	-728.352608	473.664939	34.837354	-903.050921	388.789417	49.906594	-902.425400	
973	4.860000	354.221423	1628.628246	-765.801143	212.721391	1313.716453	-633.935781	496.705295	1309.698658	-847.370938	304.181677	1301.998716	-817.496135	187.738432	893.978676	-749.430287	364.104483	895.757108	-903.969596	368.035602	910.044197	-651.439883	444.466020	905.266730	-710.413463	406.251002	907.655477	-680.926448	213.751419	538.151092	-751.387519	216.203349	447.476269	-632.432919	326.315852	423.845036	-696.163607	239.516419	379.485286	-691.687794	224.751414	86.229516	-616.492463	276.639597	102.586145	-683.524829	292.167335	47.582927	-598.773861	143.047652	32.765501	-694.493561	165.526090	55.780663	-757.826447	361.617011	530.540997	-851.940602	489.010301	441.954043	-829.798750	398.683651	423.162977	-745.243087	436.651848	375.870062	-824.109574	505.049846	89.725379	-811.795305	431.141734	100.028850	-775.492466	501.264630	44.510924	-728.354683	473.663939	34.839006	-903.053826	388.786360	49.903963	-902.426473	
974	4.865000	354.251000	1628.628585	-765.774645	212.753783	1313.725151	-633.895419	496.749337	1309.701610	-847.330729	304.234708	1302.007089	-817.445736	187.760985	893.981577	-749.412102	364.127614	895.761923	-903.948186	368.057993	910.037758	-651.421343	444.488472	905.261923	-710.391417	406.273384	907.649791	-680.906272	213.772746	538.140982	-751.367060	216.214054	447.474287	-632.428742	326.326842	423.846683	-696.158502	239.523260	379.482024	-691.682319	224.744797	86.227993	-616.491409	276.644881	102.590942	-683.529102	292.164507	47.582865	-598.775863	143.045656	32.762521	-694.492811	165.523059	55.783379	-757.824817	361.632511	530.541150	-851.926351	489.021429	441.952576	-829.789294	398.689520	423.174423	-745.233814	436.663940	375.876288	-824.110430	505.053772	89.719886	-811.793142	431.145152	100.027742	-775.499645	501.263271	44.504365	-728.359246	473.659483	34.841043	-903.057291	388.783254	49.899989	-902.428782	
975	4.870000	354.281557	1628.626019	-765.748222	212.783017	1313.733826	-633.854856	496.793852	1309.702568	-847.288927	304.285503	1302.015804	-817.394208	187.783639	893.981585	-749.392900	364.149324	895.767669	-903.929515	368.080466	910.031454	-651.401793	444.508571	905.254948	-710.369013	406.294606	907.643110	-680.885407	213.794908	538.129063	-751.345868	216.224550	447.472377	-632.423885	326.340618	423.848690	-696.151159	239.529842	379.477505	-691.677164	224.738625	86.226143	-616.490236	276.647258	102.592792	-683.535952	292.162342	47.580214	-598.776435	143.043614	32.757981	-694.492304	165.519513	55.785510	-757.824545	361.649664	530.541332	-851.911215	489.029969	441.950367	-829.780747	398.693917	423.182268	-745.225621	436.676375	375.881669	-824.109172	505.045340	89.719693	-811.809982	431.147436	100.024211	-775.504564	501.263493	44.495850	-728.365004	473.653004	34.841246	-903.060455	388.781098	49.896302	-902.432656	
976	4.875000	354.313671	1628.621432	-765.721490	212.810612	1313.743231	-633.813493	496.837004	1309.702135	-847.245410	304.332818	1302.024028	-817.342869	187.806827	893.980054	-749.372970	364.170478	895.772567	-903.912284	368.105142	910.027023	-651.379886	444.528263	905.247892	-710.346083	406.316728	907.637365	-680.863035	213.814390	538.121899	-751.329067	216.235553	447.469650	-632.417432	326.355771	423.850293	-696.142331	239.537050	379.473498	-691.671251	224.733743	86.224637	-616.489653	276.645375	102.590463	-683.543316	292.160771	47.575924	-598.776119	143.041860	32.753653	-694.491787	165.517216	55.786590	-757.825753	361.667577	530.540710	-851.894576	489.038825	441.948177	-829.772180	398.706074	423.182021	-745.212872	436.690296	375.882553	-824.102745	505.006407	89.733437	-811.875630	431.147508	100.018793	-775.506713	501.264511	44.487200	-728.370920	473.647354	34.838863	-903.062758	388.781089	49.894548	-902.436885	
977	4.880000	354.347567	1628.617252	-765.694102	212.837685	1313.753545	-633.771030	496.877993	1309.701412	-847.200642	304.376951	1302.030892	-817.292397	187.830740	893.978925	-749.352877	364.191624	895.775104	-903.895047	368.133592	910.025759	-651.355024	444.550320	905.242314	-710.323983	406.341926	907.633986	-680.839509	213.830169	538.122360	-751.317953	216.246736	447.465853	-632.409088	326.370973	423.851968	-696.133314	239.544982	379.470778	-691.663512	224.729677	86.224891	-616.489141	276.639837	102.586301	-683.550074	292.160044	47.570486	-598.775706	143.040897	32.751552	-694.491638	165.516348	55.786404	-757.828575	361.685362	530.538815	-851.876801	489.049927	441.945776	-829.763199	398.727606	423.173337	-745.194171	436.706391	375.878490	-824.091706	504.950018	89.757267	-811.971001	431.145964	100.012936	-775.506556	501.264699	44.481369	-728.375287	473.644763	34.834945	-903.063442	388.783593	49.895622	-902.439335	
978	4.885000	354.382978	1628.615634	-765.666728	212.865455	1313.764512	-633.727830	496.917719	1309.701023	-847.155076	304.419118	1302.036621	-817.242690	187.855171	893.979152	-749.333050	364.212690	895.775672	-903.877185	368.164841	910.027384	-651.328518	444.576440	905.238651	-710.304582	406.370562	907.633016	-680.816453	213.843364	538.128317	-751.310191	216.257957	447.462451	-632.399419	326.385946	423.853767	-696.124051	239.553722	379.468267	-691.653937	224.725433	86.227535	-616.487798	276.633179	102.583872	-683.556514	292.161209	47.563786	-598.775488	143.041167	32.752412	-694.492661	165.515282	55.785150	-757.832608	361.703153	530.535688	-851.859605	489.062921	441.942952	-829.754602	398.751118	423.160820	-745.174702	436.724029	375.872358	-824.079067	504.902282	89.779703	-812.054240	431.144384	100.007968	-775.504691	501.263200	44.480080	-728.376522	473.645456	34.830801	-903.061839	388.787534	49.899103	-902.438864	
979	4.890000	354.419230	1628.616933	-765.640652	212.895723	1313.776217	-633.684607	496.957884	1309.701628	-847.109416	304.460679	1302.042064	-817.193407	187.880200	893.980242	-749.314065	364.233959	895.776166	-903.858675	368.196415	910.030088	-651.303583	444.605798	905.236493	-710.288125	406.400994	907.633300	-680.795663	213.854843	538.135363	-751.302552	216.270499	447.461731	-632.389166	326.400894	423.854361	-696.113898	239.563545	379.464447	-691.643400	224.721282	86.231493	-616.485530	276.628668	102.583362	-683.561920	292.165051	47.556405	-598.775705	143.042406	32.754861	-694.495348	165.512792	55.783123	-757.836693	361.721414	530.532205	-851.844466	489.076515	441.941014	-829.748056	398.769626	423.149578	-745.160078	436.741827	375.868039	-824.067828	504.874560	89.793320	-812.105084	431.143450	100.004644	-775.502511	501.260727	44.481088	-728.375034	473.648110	34.827657	-903.058735	388.791266	49.903608	-902.436276	
980	4.895000	354.455739	1628.619670	-765.616491	212.929387	1313.789468	-633.641657	496.999770	1309.704147	-847.064889	304.502613	1302.048057	-817.144145	187.906408	893.980826	-749.296050	364.256328	895.777794	-903.839439	368.226562	910.031516	-651.282519	444.635817	905.235822	-710.273414	406.431075	907.633638	-680.777747	213.865476	538.139589	-751.291918	216.286334	447.464198	-632.378518	326.415966	423.852352	-696.103091	239.574299	379.459061	-691.633533	224.718988	86.235389	-616.483132	276.628469	102.581827	-683.564074	292.170151	47.550500	-598.776629	143.043808	32.756684	-694.499333	165.509610	55.780709	-757.839591	361.740090	530.530040	-851.831241	489.089869	441.941742	-829.744865	398.783915	423.140960	-745.150730	436.758998	375.867430	-824.059008	504.863346	89.797741	-812.126930	431.142621	100.002717	-775.502427	501.258592	44.479775	-728.373467	473.651247	34.826513	-903.056106	388.793529	49.907380	-902.433459	
981	4.900000	354.492498	1628.621916	-765.593801	212.965372	1313.804773	-633.598532	497.043293	1309.709380	-847.022863	304.545082	1302.055621	-817.095038	187.933987	893.980086	-749.277921	364.279894	895.780206	-903.819632	368.255067	910.030183	-651.264425	444.664455	905.237120	-710.259059	406.459688	907.633568	-680.761570	213.877012	538.139462	-751.275920	216.306019	447.467856	-632.366797	326.430982	423.847468	-696.092357	239.585221	379.453287	-691.625820	224.719661	86.239072	-616.481180	276.632455	102.578062	-683.562534	292.173474	47.548185	-598.778283	143.045216	32.756754	-694.503510	165.507341	55.778963	-757.840737	361.758916	530.530487	-851.818839	489.102742	441.945076	-829.744282	398.799834	423.134653	-745.142626	436.775759	375.869108	-824.051440	504.861039	89.796678	-812.131111	431.141336	100.000998	-775.506224	501.257436	44.473908	-728.374429	473.653760	34.826705	-903.055118	388.793717	49.908873	-902.431700	
